<svg width="20" height="20" viewBox="0 0 20 20" fill="none" xmlns="http://www.w3.org/2000/svg">
<path d="M15.8333 2.5H4.16667C3.24167 2.5 2.5 3.25 2.5 4.16667V15.8333C2.5 16.75 3.24167 17.5 4.16667 17.5H15.8333C16.7583 17.5 17.5 16.75 17.5 15.8333V4.16667C17.5 3.25 16.7583 2.5 15.8333 2.5ZM14.375 10C14.375 10.2 14.3583 10.3917 14.3333 10.5917L14.3417 10.575L15.5667 11.5417C15.6833 11.625 15.7583 11.6917 15.7583 11.6917L14.3417 14.1417L12.6583 13.475L12.675 13.45C12.3667 13.6917 12.0333 13.8917 11.6667 14.0417H11.675L11.45 15.5833C11.4333 15.725 11.4167 15.8333 11.4167 15.8333H8.58333L8.325 14.0417H8.33333C7.96667 13.8917 7.63333 13.6917 7.325 13.45L7.34167 13.475L5.65833 14.1417L4.24167 11.6917C4.24167 11.6917 4.325 11.625 4.43333 11.5417L5.65833 10.575L5.66667 10.5917C5.64167 10.3917 5.625 10.2 5.625 10C5.625 9.8 5.64167 9.60833 5.66667 9.425L5.65833 9.43333L4.24167 8.31667L5.65833 5.85833L7.33333 6.53333V6.54167C7.64167 6.30833 7.975 6.10833 8.33333 5.95833H8.325L8.58333 4.16667H11.425L11.675 5.95833H11.6667C12.025 6.10833 12.3583 6.30833 12.6667 6.54167V6.53333L14.3417 5.85833L15.7583 8.31667L14.3333 9.43333L14.325 9.425C14.3583 9.60833 14.375 9.8 14.375 10Z" fill="#F2F2F2"/>
<path d="M9.99998 12.0416C11.1276 12.0416 12.0416 11.1276 12.0416 9.99998C12.0416 8.8724 11.1276 7.95831 9.99998 7.95831C8.8724 7.95831 7.95831 8.8724 7.95831 9.99998C7.95831 11.1276 8.8724 12.0416 9.99998 12.0416Z" fill="#F2F2F2"/>
</svg>
